<svg width="8" height="14" viewBox="0 0 8 14" fill="none" xmlns="http://www.w3.org/2000/svg">
<path d="M0.321835 7.41992L5.98183 13.0699C6.0748 13.1637 6.1854 13.238 6.30726 13.2888C6.42912 13.3396 6.55982 13.3657 6.69183 13.3657C6.82385 13.3657 6.95455 13.3396 7.07641 13.2888C7.19827 13.238 7.30887 13.1637 7.40183 13.0699C7.58809 12.8826 7.69263 12.6291 7.69263 12.3649C7.69263 12.1007 7.58809 11.8473 7.40183 11.6599L2.45183 6.65992L7.40183 1.70992C7.58809 1.52256 7.69263 1.26911 7.69263 1.00492C7.69263 0.740739 7.58809 0.487288 7.40183 0.299925C7.30922 0.205437 7.19877 0.130266 7.0769 0.0787697C6.95502 0.0272732 6.82414 0.00047493 6.69183 -7.43866e-05C6.55953 0.00047493 6.42864 0.0272732 6.30677 0.0787697C6.18489 0.130266 6.07445 0.205437 5.98183 0.299925L0.321835 5.94992C0.22033 6.04357 0.139321 6.15722 0.0839138 6.28372C0.0285063 6.41022 -9.82285e-05 6.54682 -9.82285e-05 6.68492C-9.82285e-05 6.82303 0.0285063 6.95963 0.0839138 7.08613C0.139321 7.21263 0.22033 7.32628 0.321835 7.41992Z" fill="#768396"/>
</svg>
