<svg width="25" height="24" viewBox="0 0 25 24" fill="none" xmlns="http://www.w3.org/2000/svg">
<path fill-rule="evenodd" clip-rule="evenodd" d="M16.0567 4.41835C13.4419 3.98362 10.7575 3.98362 8.14262 4.41835C7.65053 4.50016 7.25969 4.87509 7.1616 5.35802C6.26911 9.752 6.22041 14.2735 7.01806 18.6854L7.18298 19.5976L10.8843 16.1106C11.5654 15.4689 12.634 15.4689 13.3151 16.1106L17.0164 19.5976L17.1813 18.6854C17.979 14.2735 17.9303 9.752 17.0378 5.35802C16.9397 4.87509 16.5488 4.50016 16.0567 4.41835ZM7.89253 2.93899C10.673 2.47674 13.5264 2.47674 16.3068 2.93899C17.4153 3.12327 18.2982 3.96709 18.5206 5.06183C19.4506 9.64074 19.5014 14.3525 18.6701 18.9501L18.4468 20.1854C18.2593 21.2223 16.9847 21.6367 16.2146 20.9112L12.2733 17.1981C12.176 17.1064 12.0234 17.1064 11.9261 17.1981L7.98477 20.9112C7.21467 21.6367 5.94003 21.2223 5.75257 20.1854L5.52923 18.9501C4.69801 14.3525 4.74876 9.64074 5.67881 5.06183C5.90117 3.96709 6.78411 3.12327 7.89253 2.93899Z" fill="#C4C4C4"/>
</svg>
