<svg width="15" height="20" viewBox="0 0 15 20" fill="none" xmlns="http://www.w3.org/2000/svg">
<path d="M11.267 1.18555C8.51413 0.727883 5.68885 0.727883 2.93602 1.18555C1.93032 1.35275 1.1294 2.11842 0.927755 3.11119C0.00395819 7.65929 -0.0464467 12.3394 0.779184 16.906L1.11533 18.7652C1.21898 19.3385 1.92374 19.5676 2.34954 19.1665L6.40697 15.344C6.79617 14.9773 7.40681 14.9773 7.79601 15.344L11.8534 19.1665C12.2792 19.5676 12.984 19.3385 13.0877 18.7652L13.4238 16.906C14.2494 12.3394 14.199 7.65928 13.2752 3.11119C13.0736 2.11842 12.2727 1.35275 11.267 1.18555Z" fill="#9282F0"/>
</svg>
